<svg xmlns="http://www.w3.org/2000/svg" viewBox="0 0 800 410" width="800" height="410">
<style>
  .line { stroke: #1a1a1a; fill: none; stroke-width: 3; stroke-linejoin: round; stroke-linecap: round; }
  .solid { fill: #1a1a1a; stroke: none; }
  .frame { stroke: #b0b0b0; fill: none; stroke-width: 2; }
  .dashed { stroke: #b0b0b0; fill: none; stroke-width: 2; stroke-dasharray: 6 6; }
  .label { fill: #1a1a1a; font-family: system-ui, sans-serif; font-size: 34px; text-anchor: middle; }
  /* Küp yüzleri: dolgu, arkadaki küplerin kenarlarını gizler (derinlik algısı için üç ton). */
  .face { stroke: #1a1a1a; stroke-width: 2.5; stroke-linejoin: round; }
  .face-top { fill: #ffffff; }
  .face-left { fill: #d8d8d8; }
  .face-right { fill: #efefef; }
  @media (prefers-color-scheme: dark) {
    .line { stroke: #ededed; }
    .solid { fill: #ededed; }
    .frame, .dashed { stroke: #666; }
    .label { fill: #ededed; }
    .face { stroke: #ededed; }
    .face-top { fill: #3a3a3a; }
    .face-left { fill: #141414; }
    .face-right { fill: #262626; }
  }
</style>
<text class="label" style="font-size:26px" x="185" y="26">Hareket kuralı</text><rect class="frame" x="0" y="40" width="74" height="74"  /><rect class="frame" x="74" y="40" width="74" height="74"  /><text class="label" x="111" y="89">×</text><rect class="frame" x="148" y="40" width="74" height="74"  /><rect class="frame" x="222" y="40" width="74" height="74"  /><text class="label" x="259" y="89">×</text><rect class="frame" x="296" y="40" width="74" height="74"  /><rect class="frame" x="0" y="114" width="74" height="74"  /><text class="label" x="37" y="163">×</text><rect class="frame" x="74" y="114" width="74" height="74"  /><rect class="frame" x="148" y="114" width="74" height="74"  /><rect class="frame" x="222" y="114" width="74" height="74"  /><rect class="frame" x="296" y="114" width="74" height="74"  /><text class="label" x="333" y="163">×</text><rect class="frame" x="0" y="188" width="74" height="74"  /><rect class="frame" x="74" y="188" width="74" height="74"  /><rect class="frame" x="148" y="188" width="74" height="74"  /><text class="label" x="185" y="237">●</text><rect class="frame" x="222" y="188" width="74" height="74"  /><rect class="frame" x="296" y="188" width="74" height="74"  /><rect class="frame" x="0" y="262" width="74" height="74"  /><text class="label" x="37" y="311">×</text><rect class="frame" x="74" y="262" width="74" height="74"  /><rect class="frame" x="148" y="262" width="74" height="74"  /><rect class="frame" x="222" y="262" width="74" height="74"  /><rect class="frame" x="296" y="262" width="74" height="74"  /><text class="label" x="333" y="311">×</text><rect class="frame" x="0" y="336" width="74" height="74"  /><rect class="frame" x="74" y="336" width="74" height="74"  /><text class="label" x="111" y="385">×</text><rect class="frame" x="148" y="336" width="74" height="74"  /><rect class="frame" x="222" y="336" width="74" height="74"  /><text class="label" x="259" y="385">×</text><rect class="frame" x="296" y="336" width="74" height="74"  /><text class="label" style="font-size:26px" x="615" y="26">Tahta</text><rect class="frame" x="430" y="40" width="74" height="74"  /><rect class="frame" x="504" y="40" width="74" height="74"  /><rect class="frame" x="578" y="40" width="74" height="74"  /><rect class="frame" x="652" y="40" width="74" height="74"  /><rect class="frame" x="726" y="40" width="74" height="74"  /><rect class="frame" x="430" y="114" width="74" height="74"  /><rect class="frame" x="504" y="114" width="74" height="74"  /><rect class="frame" x="578" y="114" width="74" height="74"  /><rect class="frame" x="652" y="114" width="74" height="74"  /><rect class="frame" x="726" y="114" width="74" height="74"  /><rect class="frame" x="430" y="188" width="74" height="74"  /><rect class="frame" x="504" y="188" width="74" height="74"  /><rect class="frame" x="578" y="188" width="74" height="74"  /><text class="label" x="615" y="237">B</text><rect class="frame" x="652" y="188" width="74" height="74"  /><rect class="frame" x="726" y="188" width="74" height="74"  /><rect class="frame" x="430" y="262" width="74" height="74"  /><rect class="frame" x="504" y="262" width="74" height="74"  /><rect class="frame" x="578" y="262" width="74" height="74"  /><rect class="frame" x="652" y="262" width="74" height="74"  /><rect class="frame" x="726" y="262" width="74" height="74"  /><rect class="frame" x="430" y="336" width="74" height="74"  /><text class="label" x="467" y="385">A</text><rect class="frame" x="504" y="336" width="74" height="74"  /><rect class="frame" x="578" y="336" width="74" height="74"  /><rect class="frame" x="652" y="336" width="74" height="74"  /><rect class="frame" x="726" y="336" width="74" height="74"  />
</svg>
